<svg xmlns="http://www.w3.org/2000/svg" width="40" height="40" x="0px" y="0px" viewBox="0 0 256 256" enable-background="new 0 0 256 256" xml:space="preserve">

<g> <path fill="#33303d" d="M194.5,162.9h-81.2v-7.3H187V52.4H39.5v81h-7.3V44.9h162.3V162.9z"/> <path fill="#add8e4" d="M46.8,59.7h132.8v88.5H46.8V59.7z"/> <path fill="#69bdd1" d="M139,89.2l-59,59h99.7v-18.5L139,89.2z"/> <path fill="#69bdd1" d="M83.8,111.2l-36.8,37h73.8L83.8,111.2z"/> <path fill="#ffffff" d="M89.3,87.2c0,6.1,4.9,11,11,11c6.1,0,11-4.9,11-11c0,0,0,0,0,0c0-6.1-4.9-11-11-11 C94.2,76.2,89.3,81.1,89.3,87.2C89.3,87.2,89.3,87.2,89.3,87.2z"/> <path fill="#dd5d58" d="M24.8,155.4h66.5v44.3H24.8V155.4z"/> <path fill="#33303d" d="M106,214.6H10v-73.7h96V214.6z M17.5,206.6h81v-59h-81V206.6z"/> <path fill="#ffffff" d="M50.5,170.4l14.8,7.3l-14.8,7.5V170.4z"/> <path fill="#33303d" d="M201.8,96.6h29.5v7.5h-29.5V96.6z M201.8,111.4h29.5v7.5h-29.5V111.4z M201.8,126.1h29.5v7.5h-29.5V126.1z  M201.8,140.9h29.5v7.5h-29.5V140.9z M201.8,155.6h29.5v7.5h-29.5V155.6z M135.5,170.4h96v7.5h-96V170.4z M135.5,185.1h96v7.5h-96 V185.1z M135.5,199.9h96v7.5h-96V199.9z M135.5,214.6h59v7.5h-59V214.6z"/> <path fill="#33303d" d="M246,236.7H120.7v-66.3h7.3v59h110.7V89.2h-37v-7.3H246V236.7L246,236.7z M172.3,19.1h7.5v7.5h-7.5V19.1z  M238.7,59.7h-37V22.9h37V59.7z M209.2,52.4h22.2V29.6h-22.2V52.4z"/> <path fill="#33303d" d="M216.5,37.6h7.5v7.5h-7.5V37.6z M24.8,63.4h-7.3V30.2h33v7.5H24.8V63.4z M58,30.2h7.5v7.5H58V30.2z  M72.7,30.2h7.5v7.5h-7.5V30.2z M83.8,229.4h7.5v7.5h-7.5V229.4z M69,229.4h7.5v7.5H69V229.4z M98.5,229.4h7.5v7.5h-7.5V229.4z"/></g>
</svg>