<svg width="40px" height="40px" xmlns="http://www.w3.org/2000/svg" viewBox="0 0 500 500"><path d="M220.8 282.4c-26.2-12.6-37.1-44-24.5-70.2s44-37.1 70.2-24.5 37.1 44 24.5 70.2-44.1 37.1-70.2 24.5" fill="#374E94"></path><path d="M434.5 274c15.6 7.5 22.2 26.3 14.7 41.9s-26.3 22.2-41.9 14.7-22.2-26.3-14.7-41.9c7.4-15.6 26.3-22.2 41.9-14.7z" fill="#374E94"></path><path d="M373.9 101.9c19.6 9.5 27.9 33.1 18.4 52.7s-33.1 27.9-52.7 18.4-27.9-33.1-18.4-52.7 33.1-27.8 52.7-18.4z" fill="#374E94"></path><circle cx="179.7" cy="82.4" r="36.7" fill="#374E94"></circle><circle transform="matrix(.4342 -.9008 .9008 .4342 -207.9135 510.4688)" cx="302.4" cy="420.7" r="33.5" fill="#374E94"></circle><path d="M157.4 398.4c-13.6-6.5-19.3-22.8-12.7-36.4 6.5-13.6 22.8-19.3 36.4-12.7 13.6 6.5 19.3 22.8 12.7 36.4-6.5 13.6-22.8 19.3-36.4 12.7" fill="#374E94"></path><g fill="#374E94"><circle transform="matrix(.4342 -.9008 .9008 .4342 -184.4823 228.9997)" cx="90" cy="261.3" r="42.3"></circle><path d="M256.7 300.3l24.8 78.3c.8 2.7 3.7 4.2 6.4 3.3l3.9-1.2c2.8-.9 4.3-3.8 3.4-6.6l-24.8-78.3c-.8-2.7-3.7-4.2-6.4-3.3l-3.9 1.2c-2.8.8-4.3 3.8-3.4 6.6z"></path></g><path d="M217.2 289.9l-4.7-2.5c-2.1-1.3-4.8-.5-6 1.7l-24.9 46.4c-1.2 2.2-.3 4.9 2 5.9.3.2.7.3 1 .5l3.6 2c2.1 1.3 4.9.6 6.1-1.6l24.9-46.4c1.2-2.2.3-4.9-2-6z" fill="#374E94"></path><path d="M177.4 239.1l-33.5 5.7c-2.7.5-4.5 3.1-4 5.9l.7 4.2c.4 2.8 2.9 4.7 5.7 4.2l33.5-5.7c2.7-.5 4.6-3.1 4.1-5.8l-.7-4.3c-.4-2.8-3-4.7-5.8-4.2zm121-41.8l22.8-19.7c2.3-1.9 2.4-5.3.4-7.5l-2.3-2.7a5.18 5.18 0 0 0-7.5-.7L289 186.4c-2.2 1.9-2.5 5.3-.6 7.5l2.4 2.8c2 2.3 5.4 2.5 7.6.6z" fill="#374E94"></path><path d="M218.6 179.6l3.1-1.3c2.8-1.2 4.1-4.4 3-7.2l-18.8-44.9c-1.2-2.8-4.4-4.1-7.2-3l-3.1 1.3c-2.8 1.2-4.1 4.4-3 7.2l18.8 44.9c1.1 2.9 4.4 4.2 7.2 3zM303 265l72 27.2c2.6 1 5.6-.3 6.6-2.9l1.5-3.8c1-2.7-.3-5.8-3-6.8l-72-27.2c-2.6-1-5.6.3-6.6 2.9l-1.5 3.8c-1.1 2.7.3 5.8 3 6.8z" fill="#374E94"></path></svg> 